<svg width="219" height="32" viewBox="0 0 219 32" fill="none" xmlns="http://www.w3.org/2000/svg">
<path d="M47 7.35898L43.4779 7.29676L41.692 4.40939L40.8083 7.76347L37 8.41685L40.4599 9.87921L40.771 10.0099L40.0367 13.1835L42.1898 11.2731L45.687 13.1835L44.2744 9.3316L47 7.35898Z" fill="#E43A12"/>
<path d="M12.1973 5.03806L14.6056 13.3426L9 19.6955L17.6783 19.3633L21.8306 28L23.2008 18.8651V18.0346L31.2977 17.4948L25.1939 13.7162L27.1869 4L18.8824 10.1453L12.1973 5.03806Z" fill="#E43A12"/>
<path d="M12.0982 29.625L10.1964 27.4881L11.8214 25.3452L8.29464 26.0536L5.61607 24L6.21427 26.625L6.26786 26.8571L3 27.5952L5.9107 28.1905L6.13391 31L8.81248 28.7321L12.0982 29.625Z" fill="#E43A12"/>
<path d="M32.6867 22.3185L33.5805 24.3733L31.5 25.9452L34.7209 25.863L36.262 28L36.6319 25.6884V25.4829L39.637 25.339L37.3716 24.4144L38.1113 22L35.0291 23.5308L32.6867 22.3185Z" fill="#E43A12"/>
<path d="M56.8984 10.2422C56.638 10.1641 56.4818 9.99479 56.4297 9.73438C56.3646 9.55208 56.3841 9.35677 56.4883 9.14844C56.5924 8.92708 56.7552 8.80339 56.9766 8.77734C58.2396 8.58203 59.5026 8.47786 60.7656 8.46484C62.0417 8.4388 63.3177 8.41927 64.5938 8.40625C64.8411 8.40625 65.0299 8.48438 65.1602 8.64062C65.2904 8.79688 65.3555 8.97266 65.3555 9.16797C65.3555 9.36328 65.2904 9.54557 65.1602 9.71484C65.0299 9.87109 64.8411 9.94922 64.5938 9.94922C63.5781 9.97526 62.556 9.98828 61.5273 9.98828C60.4987 9.98828 59.4701 10.0404 58.4414 10.1445C58.4674 10.6654 58.5 11.1862 58.5391 11.707C58.5781 12.2148 58.6172 12.7292 58.6562 13.25C59.6458 13.1979 60.6289 13.1328 61.6055 13.0547C62.5951 12.9766 63.5846 12.9635 64.5742 13.0156C64.8216 13.0286 65.0104 13.1198 65.1406 13.2891C65.2708 13.4583 65.3359 13.6406 65.3359 13.8359C65.3359 14.0312 65.2708 14.207 65.1406 14.3633C65.0104 14.5195 64.8216 14.5911 64.5742 14.5781C63.5977 14.526 62.6276 14.5391 61.6641 14.6172C60.7135 14.6953 59.75 14.7604 58.7734 14.8125C58.8516 15.75 58.9232 16.6875 58.9883 17.625C59.0664 18.5495 59.1185 19.4805 59.1445 20.418C59.6003 20.3138 60.0625 20.2161 60.5312 20.125C61 20.0208 61.4688 19.9427 61.9375 19.8906C62.4062 19.8255 62.875 19.793 63.3438 19.793C63.8125 19.793 64.2812 19.832 64.75 19.9102C64.9583 19.9492 65.1146 20.0729 65.2188 20.2812C65.3229 20.4896 65.349 20.6849 65.2969 20.8672C65.2318 21.0885 65.1081 21.2448 64.9258 21.3359C64.7435 21.4271 64.5417 21.4531 64.3203 21.4141C63.9036 21.3359 63.4805 21.3099 63.0508 21.3359C62.6211 21.362 62.1979 21.4076 61.7812 21.4727C61.2995 21.5508 60.8177 21.6419 60.3359 21.7461C59.8672 21.8503 59.3984 21.9609 58.9297 22.0781C58.7083 22.1302 58.5 22.0911 58.3047 21.9609C58.1224 21.9349 57.9596 21.8633 57.8164 21.7461C57.6732 21.6289 57.6016 21.4531 57.6016 21.2188C57.5755 20.112 57.5234 19.0182 57.4453 17.9375C57.3802 16.8568 57.3021 15.7695 57.2109 14.6758C57.0677 14.5326 56.9831 14.3568 56.957 14.1484C56.944 13.9271 57.0026 13.7383 57.1328 13.582C57.0286 12.4753 56.9505 11.362 56.8984 10.2422ZM67.7773 17.6641C67.4388 17.4167 67.1979 17.1107 67.0547 16.7461C66.9115 16.3685 66.9049 15.9714 67.0352 15.5547C67.1654 15.1771 67.3672 14.8385 67.6406 14.5391C67.9141 14.2396 68.2266 13.9987 68.5781 13.8164C68.9688 13.6081 69.3854 13.4453 69.8281 13.3281C70.2708 13.2109 70.7201 13.1458 71.1758 13.1328C71.6315 13.1198 72.0807 13.1654 72.5234 13.2695C72.9792 13.3607 73.4089 13.5104 73.8125 13.7188C74.0339 13.8359 74.1576 13.9922 74.1836 14.1875C74.2096 14.3828 74.1706 14.5651 74.0664 14.7344C73.9753 14.9036 73.832 15.0273 73.6367 15.1055C73.4414 15.1836 73.2331 15.1641 73.0117 15.0469C72.6992 14.8776 72.3477 14.7669 71.957 14.7148C71.5664 14.6628 71.1693 14.6628 70.7656 14.7148C70.375 14.7539 70.0039 14.8516 69.6523 15.0078C69.3008 15.1641 69.0078 15.3659 68.7734 15.6133C68.7083 15.6784 68.6628 15.724 68.6367 15.75C68.6237 15.776 68.5977 15.8346 68.5586 15.9258L68.5195 16.1406C68.5586 16.2578 68.5911 16.3294 68.6172 16.3555C68.8776 16.5247 69.1445 16.6354 69.418 16.6875C69.7044 16.7266 69.9909 16.7526 70.2773 16.7656C70.681 16.7917 71.0911 16.8177 71.5078 16.8438C71.9375 16.8568 72.3477 16.9089 72.7383 17C73.1419 17.0911 73.513 17.2409 73.8516 17.4492C74.1901 17.6576 74.4766 17.9635 74.7109 18.3672C74.9714 18.8229 75.0885 19.2982 75.0625 19.793C75.0495 20.2747 74.8607 20.7109 74.4961 21.1016C74.1315 21.4922 73.7083 21.7656 73.2266 21.9219C72.7448 22.0651 72.2565 22.1693 71.7617 22.2344C71.319 22.2865 70.8568 22.2995 70.375 22.2734C69.9062 22.2474 69.4505 22.1693 69.0078 22.0391C68.5781 21.9219 68.1745 21.7396 67.7969 21.4922C67.4193 21.2318 67.1068 20.8932 66.8594 20.4766C66.7422 20.2682 66.7227 20.0729 66.8008 19.8906C66.8789 19.6953 66.9961 19.5521 67.1523 19.4609C67.3216 19.3568 67.5039 19.3177 67.6992 19.3438C67.9076 19.3698 68.0768 19.487 68.207 19.6953C68.3893 19.9948 68.6432 20.2227 68.9688 20.3789C69.2943 20.5352 69.6458 20.6458 70.0234 20.7109C70.4141 20.763 70.8047 20.776 71.1953 20.75C71.5859 20.7109 71.9375 20.6589 72.25 20.5938C72.4193 20.5547 72.5885 20.5026 72.7578 20.4375C72.9401 20.3594 73.0898 20.2682 73.207 20.1641C73.3372 20.0599 73.4284 19.9427 73.4805 19.8125C73.5326 19.6693 73.526 19.513 73.4609 19.3438C73.3307 19.0182 73.1094 18.7839 72.7969 18.6406C72.4974 18.4974 72.1784 18.4128 71.8398 18.3867C71.5013 18.3607 71.1562 18.3477 70.8047 18.3477C70.4531 18.3477 70.1016 18.3346 69.75 18.3086C69.3984 18.2695 69.0534 18.2044 68.7148 18.1133C68.3763 18.0221 68.0638 17.8724 67.7773 17.6641ZM82.4844 15.1836C82.7318 15.1836 82.9141 15.2617 83.0312 15.418C83.1615 15.5742 83.2266 15.75 83.2266 15.9453C83.2266 16.1406 83.1615 16.3229 83.0312 16.4922C82.9141 16.6484 82.7318 16.7266 82.4844 16.7266C82.1719 16.7396 81.8594 16.7396 81.5469 16.7266C81.2474 16.7005 80.9479 16.6745 80.6484 16.6484C80.6615 17.6771 80.6419 18.7057 80.5898 19.7344C80.5508 20.763 80.4466 21.7852 80.2773 22.8008C80.2513 23.0221 80.1341 23.1849 79.9258 23.2891C79.7174 23.3932 79.5156 23.4128 79.3203 23.3477C79.099 23.2826 78.9427 23.1589 78.8516 22.9766C78.7734 22.8073 78.7539 22.612 78.793 22.3906C78.9492 21.401 79.0339 20.4115 79.0469 19.4219C79.0729 18.4323 79.0729 17.4362 79.0469 16.4336C78.5521 16.3555 78.0508 16.2773 77.543 16.1992C77.0352 16.1081 76.5339 16.0299 76.0391 15.9648C75.8177 15.9388 75.6615 15.8216 75.5703 15.6133C75.4661 15.3919 75.4401 15.1901 75.4922 15.0078C75.5573 14.7865 75.681 14.6367 75.8633 14.5586C76.0456 14.4674 76.2409 14.4349 76.4492 14.4609C76.8789 14.526 77.3086 14.5977 77.7383 14.6758C78.168 14.7409 78.6042 14.806 79.0469 14.8711C79.0339 14.806 79.0273 14.7083 79.0273 14.5781C79.0273 13.4062 79.0208 12.2474 79.0078 11.1016C79.0078 9.95573 79.0664 8.79688 79.1836 7.625C79.2096 7.41667 79.2878 7.23438 79.418 7.07812C79.5612 6.92188 79.7435 6.84375 79.9648 6.84375C80.1602 6.84375 80.3424 6.92188 80.5117 7.07812C80.694 7.23438 80.7721 7.41667 80.7461 7.625C80.6159 8.875 80.5508 10.1185 80.5508 11.3555C80.5638 12.5794 80.5833 13.8229 80.6094 15.0859C80.9219 15.112 81.2344 15.138 81.5469 15.1641C81.8594 15.1771 82.1719 15.1836 82.4844 15.1836ZM84.5938 14.0508C84.6068 13.8034 84.6979 13.6211 84.8672 13.5039C85.0365 13.3737 85.2188 13.3086 85.4141 13.3086C85.6094 13.3086 85.7786 13.3737 85.9219 13.5039C86.0781 13.6211 86.1497 13.8034 86.1367 14.0508C86.1367 14.1289 86.1302 14.2135 86.1172 14.3047C86.1172 14.3828 86.1172 14.4609 86.1172 14.5391C86.5339 14.3307 86.9701 14.1549 87.4258 14.0117C87.8945 13.8555 88.3568 13.7578 88.8125 13.7188C89.2812 13.6797 89.7305 13.7188 90.1602 13.8359C90.6029 13.9401 91.0065 14.1484 91.3711 14.4609C91.5534 14.6302 91.6315 14.8125 91.6055 15.0078C91.5924 15.2031 91.5143 15.3724 91.3711 15.5156C91.2409 15.6458 91.0716 15.7305 90.8633 15.7695C90.6549 15.7956 90.4531 15.7305 90.2578 15.5742C90.1146 15.457 89.9518 15.3724 89.7695 15.3203C89.6003 15.2682 89.4115 15.2487 89.2031 15.2617C89.0078 15.2617 88.806 15.2812 88.5977 15.3203C88.4023 15.3594 88.2135 15.4049 88.0312 15.457C87.3411 15.6784 86.6966 15.9714 86.0977 16.3359C86.1237 16.974 86.1628 17.612 86.2148 18.25C86.2669 18.7839 86.3125 19.3372 86.3516 19.9102C86.3906 20.4701 86.5013 21.0039 86.6836 21.5117C86.7617 21.7461 86.7422 21.9414 86.625 22.0977C86.5208 22.2669 86.3711 22.3776 86.1758 22.4297C85.9935 22.4818 85.7982 22.4688 85.5898 22.3906C85.3945 22.3125 85.2578 22.1562 85.1797 21.9219C85.0755 21.6224 85.0039 21.3164 84.9648 21.0039C84.9258 20.6914 84.8867 20.3789 84.8477 20.0664C84.8216 19.7669 84.7891 19.4674 84.75 19.168C84.724 18.8555 84.6979 18.5495 84.6719 18.25C84.6068 17.5469 84.5612 16.8503 84.5352 16.1602C84.5221 15.457 84.5417 14.7539 84.5938 14.0508ZM93.0898 14.4219C93.3372 14.0833 93.6302 13.7839 93.9688 13.5234C94.3203 13.263 94.6914 13.0612 95.082 12.918C95.4727 12.7617 95.8763 12.6836 96.293 12.6836C96.7096 12.6706 97.1263 12.7487 97.543 12.918C97.9466 13.0742 98.3112 13.2891 98.6367 13.5625C98.9622 13.8229 99.2161 14.1615 99.3984 14.5781C99.5417 14.8906 99.6263 15.2292 99.6523 15.5938C99.6784 15.9583 99.5807 16.2904 99.3594 16.5898C99.1641 16.8633 98.9232 17.0716 98.6367 17.2148C98.3633 17.3581 98.0638 17.4622 97.7383 17.5273C97.4258 17.5924 97.1003 17.625 96.7617 17.625C96.4362 17.625 96.1237 17.6185 95.8242 17.6055C95.4857 17.5924 95.1471 17.5664 94.8086 17.5273C94.4831 17.4883 94.151 17.4492 93.8125 17.4102C93.9167 17.9961 94.125 18.5169 94.4375 18.9727C94.75 19.4284 95.1732 19.7734 95.707 20.0078C95.8503 20.0599 95.9609 20.099 96.0391 20.125C96.0781 20.138 96.1107 20.151 96.1367 20.1641C96.1758 20.1641 96.2148 20.1641 96.2539 20.1641C96.3581 20.1771 96.4427 20.1901 96.5078 20.2031C96.5859 20.2031 96.6576 20.1966 96.7227 20.1836C96.8138 20.1706 96.8724 20.1641 96.8984 20.1641C96.9375 20.151 96.9766 20.138 97.0156 20.125C97.1589 20.0859 97.2826 20.0404 97.3867 19.9883C97.5039 19.9362 97.6406 19.8516 97.7969 19.7344C97.875 19.6693 97.9792 19.5716 98.1094 19.4414C98.2396 19.3112 98.3503 19.194 98.4414 19.0898C98.5716 18.9076 98.7279 18.7839 98.9102 18.7188C99.1055 18.6536 99.3008 18.6797 99.4961 18.7969C99.6654 18.901 99.7826 19.0638 99.8477 19.2852C99.9258 19.4935 99.8997 19.6888 99.7695 19.8711C99.3919 20.3789 98.9427 20.8151 98.4219 21.1797C97.9141 21.5312 97.3281 21.7201 96.6641 21.7461C96.1302 21.7721 95.6159 21.681 95.1211 21.4727C94.6263 21.2513 94.1901 20.9583 93.8125 20.5938C93.3438 20.138 92.9727 19.6107 92.6992 19.0117C92.4258 18.4128 92.276 17.8008 92.25 17.1758C92.1328 17.0846 92.0417 16.974 91.9766 16.8438C91.9245 16.7005 91.9049 16.5573 91.918 16.4141C91.944 16.2708 91.9961 16.1406 92.0742 16.0234C92.1523 15.8932 92.2695 15.8086 92.4258 15.7695C92.569 15.2878 92.7904 14.8385 93.0898 14.4219ZM97.7773 14.8906C97.6341 14.7083 97.4128 14.5456 97.1133 14.4023C96.8659 14.2982 96.5729 14.2461 96.2344 14.2461C95.9089 14.2461 95.6289 14.3047 95.3945 14.4219C95.0951 14.5651 94.8281 14.7669 94.5938 15.0273C94.3594 15.2747 94.1706 15.5547 94.0273 15.8672C94.3398 15.9062 94.6523 15.9453 94.9648 15.9844C95.2773 16.0234 95.5898 16.0495 95.9023 16.0625C96.0716 16.0625 96.2409 16.0625 96.4102 16.0625C96.5794 16.0625 96.7487 16.056 96.918 16.043C96.9701 16.043 97.0156 16.043 97.0547 16.043C97.1068 16.0299 97.1589 16.0234 97.2109 16.0234C97.3281 15.9974 97.4128 15.9844 97.4648 15.9844C97.5299 15.9714 97.5951 15.9518 97.6602 15.9258C97.7122 15.9128 97.7773 15.8932 97.8555 15.8672C97.9206 15.8411 97.9596 15.8216 97.9727 15.8086C97.9857 15.7956 98.0052 15.7826 98.0312 15.7695L98.0898 15.5352C98.0638 15.4831 98.0443 15.4375 98.0312 15.3984C98.0312 15.3464 98.0182 15.3008 97.9922 15.2617C97.9792 15.2227 97.9466 15.1641 97.8945 15.0859C97.8555 15.0078 97.8164 14.9427 97.7773 14.8906ZM102.484 6.66797C102.719 6.66797 102.901 6.74609 103.031 6.90234C103.161 7.05859 103.24 7.24089 103.266 7.44922C103.396 8.6862 103.467 9.92318 103.48 11.1602C103.493 12.3971 103.474 13.6341 103.422 14.8711C103.383 16.1081 103.318 17.3451 103.227 18.582C103.135 19.819 103.044 21.0495 102.953 22.2734C102.927 22.4948 102.842 22.6771 102.699 22.8203C102.569 22.9766 102.393 23.0547 102.172 23.0547C101.977 23.0547 101.794 22.9766 101.625 22.8203C101.456 22.6771 101.378 22.4948 101.391 22.2734C101.482 21.0495 101.573 19.819 101.664 18.582C101.768 17.3451 101.84 16.1081 101.879 14.8711C101.931 13.6341 101.951 12.3971 101.938 11.1602C101.924 9.92318 101.853 8.6862 101.723 7.44922C101.697 7.24089 101.768 7.05859 101.938 6.90234C102.107 6.74609 102.289 6.66797 102.484 6.66797ZM106.879 21.4727C106.436 21.2773 106.085 21.0104 105.824 20.6719C105.577 20.3203 105.401 19.9362 105.297 19.5195C105.206 19.1029 105.18 18.6732 105.219 18.2305C105.258 17.7747 105.349 17.3385 105.492 16.9219C105.609 16.5964 105.74 16.2578 105.883 15.9062C106.039 15.5547 106.221 15.2292 106.43 14.9297C106.638 14.6302 106.885 14.3763 107.172 14.168C107.458 13.9466 107.797 13.8034 108.188 13.7383C108.591 13.6732 108.995 13.6536 109.398 13.6797C109.815 13.6927 110.225 13.7318 110.629 13.7969C110.811 13.8229 110.987 13.8685 111.156 13.9336C111.326 13.9857 111.495 14.0443 111.664 14.1094C111.677 13.9141 111.762 13.7513 111.918 13.6211C112.087 13.4909 112.263 13.4258 112.445 13.4258C112.667 13.4258 112.842 13.5039 112.973 13.6602C113.116 13.8034 113.201 13.9792 113.227 14.1875C113.292 14.7865 113.318 15.3854 113.305 15.9844C113.305 16.5833 113.285 17.1823 113.246 17.7812C113.22 18.3802 113.194 18.9792 113.168 19.5781C113.155 20.1771 113.161 20.776 113.188 21.375C113.201 21.6224 113.122 21.8112 112.953 21.9414C112.797 22.0586 112.621 22.1172 112.426 22.1172C112.23 22.1172 112.048 22.0586 111.879 21.9414C111.723 21.8112 111.638 21.6224 111.625 21.375C110.883 21.6875 110.095 21.8698 109.262 21.9219C108.428 21.9609 107.634 21.8112 106.879 21.4727ZM107.016 17.2344C106.938 17.4688 106.866 17.7357 106.801 18.0352C106.736 18.3346 106.716 18.6211 106.742 18.8945C106.768 19.168 106.853 19.4219 106.996 19.6562C107.139 19.8776 107.374 20.0339 107.699 20.125C108.363 20.3333 109.027 20.3919 109.691 20.3008C110.368 20.2096 111 19.9753 111.586 19.5977C111.638 18.9596 111.677 18.3411 111.703 17.7422C111.742 17.1432 111.755 16.5378 111.742 15.9258C111.521 15.7826 111.293 15.6589 111.059 15.5547C110.837 15.4375 110.59 15.3594 110.316 15.3203C110.043 15.2812 109.75 15.2552 109.438 15.2422C109.138 15.2161 108.845 15.2161 108.559 15.2422C108.533 15.2422 108.461 15.2617 108.344 15.3008C108.24 15.3268 108.181 15.3464 108.168 15.3594C108.038 15.4245 107.921 15.5286 107.816 15.6719C107.647 15.9062 107.497 16.1602 107.367 16.4336C107.237 16.694 107.12 16.9609 107.016 17.2344ZM115.922 17.6641C115.583 17.4167 115.342 17.1107 115.199 16.7461C115.056 16.3685 115.049 15.9714 115.18 15.5547C115.31 15.1771 115.512 14.8385 115.785 14.5391C116.059 14.2396 116.371 13.9987 116.723 13.8164C117.113 13.6081 117.53 13.4453 117.973 13.3281C118.415 13.2109 118.865 13.1458 119.32 13.1328C119.776 13.1198 120.225 13.1654 120.668 13.2695C121.124 13.3607 121.553 13.5104 121.957 13.7188C122.178 13.8359 122.302 13.9922 122.328 14.1875C122.354 14.3828 122.315 14.5651 122.211 14.7344C122.12 14.9036 121.977 15.0273 121.781 15.1055C121.586 15.1836 121.378 15.1641 121.156 15.0469C120.844 14.8776 120.492 14.7669 120.102 14.7148C119.711 14.6628 119.314 14.6628 118.91 14.7148C118.52 14.7539 118.148 14.8516 117.797 15.0078C117.445 15.1641 117.152 15.3659 116.918 15.6133C116.853 15.6784 116.807 15.724 116.781 15.75C116.768 15.776 116.742 15.8346 116.703 15.9258L116.664 16.1406C116.703 16.2578 116.736 16.3294 116.762 16.3555C117.022 16.5247 117.289 16.6354 117.562 16.6875C117.849 16.7266 118.135 16.7526 118.422 16.7656C118.826 16.7917 119.236 16.8177 119.652 16.8438C120.082 16.8568 120.492 16.9089 120.883 17C121.286 17.0911 121.658 17.2409 121.996 17.4492C122.335 17.6576 122.621 17.9635 122.855 18.3672C123.116 18.8229 123.233 19.2982 123.207 19.793C123.194 20.2747 123.005 20.7109 122.641 21.1016C122.276 21.4922 121.853 21.7656 121.371 21.9219C120.889 22.0651 120.401 22.1693 119.906 22.2344C119.464 22.2865 119.001 22.2995 118.52 22.2734C118.051 22.2474 117.595 22.1693 117.152 22.0391C116.723 21.9219 116.319 21.7396 115.941 21.4922C115.564 21.2318 115.251 20.8932 115.004 20.4766C114.887 20.2682 114.867 20.0729 114.945 19.8906C115.023 19.6953 115.141 19.5521 115.297 19.4609C115.466 19.3568 115.648 19.3177 115.844 19.3438C116.052 19.3698 116.221 19.487 116.352 19.6953C116.534 19.9948 116.788 20.2227 117.113 20.3789C117.439 20.5352 117.79 20.6458 118.168 20.7109C118.559 20.763 118.949 20.776 119.34 20.75C119.73 20.7109 120.082 20.6589 120.395 20.5938C120.564 20.5547 120.733 20.5026 120.902 20.4375C121.085 20.3594 121.234 20.2682 121.352 20.1641C121.482 20.0599 121.573 19.9427 121.625 19.8125C121.677 19.6693 121.671 19.513 121.605 19.3438C121.475 19.0182 121.254 18.7839 120.941 18.6406C120.642 18.4974 120.323 18.4128 119.984 18.3867C119.646 18.3607 119.301 18.3477 118.949 18.3477C118.598 18.3477 118.246 18.3346 117.895 18.3086C117.543 18.2695 117.198 18.2044 116.859 18.1133C116.521 18.0221 116.208 17.8724 115.922 17.6641ZM132.973 14.8711C133.441 14.5846 133.943 14.3372 134.477 14.1289C135.023 13.9206 135.577 13.8229 136.137 13.8359C136.085 12.7292 136.039 11.6289 136 10.5352C135.974 9.44141 135.954 8.34115 135.941 7.23438C135.941 6.98698 136.02 6.80469 136.176 6.6875C136.332 6.55729 136.508 6.49219 136.703 6.49219C136.898 6.49219 137.074 6.55729 137.23 6.6875C137.4 6.80469 137.484 6.98698 137.484 7.23438C137.497 8.52344 137.53 9.81901 137.582 11.1211C137.634 12.4102 137.686 13.6992 137.738 14.9883C137.79 16.2773 137.829 17.5729 137.855 18.875C137.882 20.1641 137.875 21.4531 137.836 22.7422C137.823 22.9896 137.732 23.1784 137.562 23.3086C137.393 23.4388 137.211 23.5039 137.016 23.5039C136.82 23.5039 136.645 23.4388 136.488 23.3086C136.332 23.1914 136.26 23.0026 136.273 22.7422C136.273 22.651 136.273 22.5599 136.273 22.4688C136.273 22.3776 136.28 22.2865 136.293 22.1953C136.163 22.1823 136.033 22.1693 135.902 22.1562C135.785 22.1562 135.668 22.1562 135.551 22.1562C135.395 22.1562 135.238 22.1562 135.082 22.1562C134.926 22.1562 134.776 22.1497 134.633 22.1367C134.294 22.1107 133.956 22.0781 133.617 22.0391C133.279 22 132.947 21.9219 132.621 21.8047C132.296 21.6745 131.99 21.5182 131.703 21.3359C131.417 21.1406 131.182 20.8867 131 20.5742C130.792 20.2487 130.616 19.8971 130.473 19.5195C130.342 19.1419 130.29 18.7513 130.316 18.3477C130.342 17.944 130.434 17.5729 130.59 17.2344C130.746 16.8958 130.941 16.5833 131.176 16.2969C131.423 16.0104 131.697 15.75 131.996 15.5156C132.309 15.2812 132.634 15.0664 132.973 14.8711ZM136.312 20.6523C136.312 18.9076 136.273 17.1562 136.195 15.3984C135.766 15.3724 135.336 15.4505 134.906 15.6328C134.49 15.8021 134.105 15.9974 133.754 16.2188C133.559 16.3359 133.344 16.4727 133.109 16.6289C132.888 16.7721 132.68 16.9414 132.484 17.1367C132.302 17.319 132.152 17.5208 132.035 17.7422C131.918 17.9635 131.859 18.2044 131.859 18.4648C131.872 18.6992 131.924 18.9531 132.016 19.2266C132.107 19.487 132.23 19.7018 132.387 19.8711C132.543 20.0404 132.719 20.1706 132.914 20.2617C133.109 20.3398 133.318 20.4049 133.539 20.457C133.799 20.5091 134.047 20.5417 134.281 20.5547C134.529 20.5677 134.783 20.5807 135.043 20.5938C135.251 20.5938 135.46 20.6068 135.668 20.6328C135.876 20.6458 136.091 20.6523 136.312 20.6523ZM144.613 12.9961C145.03 12.944 145.466 12.931 145.922 12.957C146.378 12.9701 146.814 13.0482 147.23 13.1914C147.647 13.3216 148.025 13.5234 148.363 13.7969C148.702 14.0703 148.962 14.4284 149.145 14.8711C149.275 15.1836 149.34 15.5026 149.34 15.8281C149.353 16.1406 149.307 16.4466 149.203 16.7461C149.112 17.0326 148.969 17.3125 148.773 17.5859C148.591 17.8464 148.376 18.0872 148.129 18.3086C147.595 18.7904 147.009 19.2005 146.371 19.5391C145.733 19.8776 145.062 20.138 144.359 20.3203C144.06 20.3984 143.747 20.4701 143.422 20.5352C143.109 20.5872 142.79 20.6133 142.465 20.6133C142.139 20.6133 141.82 20.5807 141.508 20.5156C141.195 20.4375 140.902 20.3138 140.629 20.1445C140.434 20.0273 140.316 19.8711 140.277 19.6758C140.199 19.4544 140.115 19.2461 140.023 19.0508C139.932 18.8555 139.841 18.6536 139.75 18.4453C139.672 18.237 139.607 18.0286 139.555 17.8203C139.503 17.612 139.477 17.3971 139.477 17.1758C139.477 16.7331 139.568 16.3164 139.75 15.9258C139.945 15.5221 140.206 15.1706 140.531 14.8711C141.078 14.3503 141.71 13.9336 142.426 13.6211C143.142 13.3086 143.871 13.1003 144.613 12.9961ZM146.82 14.6758C146.469 14.5456 146.091 14.4805 145.688 14.4805C145.258 14.4674 144.828 14.513 144.398 14.6172C143.969 14.7083 143.559 14.8385 143.168 15.0078C142.803 15.151 142.426 15.3529 142.035 15.6133C141.658 15.8607 141.378 16.1667 141.195 16.5312C141.091 16.7266 141.039 16.9284 141.039 17.1367C141.052 17.332 141.085 17.5339 141.137 17.7422C141.202 17.9375 141.28 18.1393 141.371 18.3477C141.475 18.543 141.566 18.7383 141.645 18.9336C141.853 18.9857 141.983 19.0117 142.035 19.0117C142.061 19.0247 142.094 19.0312 142.133 19.0312C142.172 19.0312 142.204 19.0312 142.23 19.0312C142.491 19.0573 142.725 19.0508 142.934 19.0117C143.077 19.0117 143.259 18.9857 143.48 18.9336C143.819 18.8685 144.145 18.7839 144.457 18.6797C144.77 18.5625 145.056 18.4388 145.316 18.3086C145.616 18.1654 145.909 18.0091 146.195 17.8398C146.482 17.6706 146.723 17.4948 146.918 17.3125C147.048 17.1953 147.172 17.0716 147.289 16.9414C147.354 16.8763 147.4 16.8242 147.426 16.7852C147.491 16.694 147.543 16.6289 147.582 16.5898C147.621 16.5378 147.654 16.4792 147.68 16.4141C147.732 16.3229 147.758 16.2513 147.758 16.1992C147.771 16.1732 147.777 16.1406 147.777 16.1016C147.79 16.0625 147.803 16.0299 147.816 16.0039V15.7891C147.803 15.737 147.797 15.6979 147.797 15.6719C147.797 15.6458 147.79 15.6198 147.777 15.5938C147.738 15.5026 147.699 15.4375 147.66 15.3984C147.634 15.3464 147.602 15.2943 147.562 15.2422C147.576 15.2552 147.556 15.2357 147.504 15.1836C147.465 15.1315 147.439 15.099 147.426 15.0859L147.27 14.9297C147.204 14.8906 147.133 14.8451 147.055 14.793C146.977 14.7409 146.898 14.7018 146.82 14.6758ZM157.992 21.7461C157.992 21.9935 157.908 22.1758 157.738 22.293C157.582 22.4232 157.406 22.4883 157.211 22.4883C157.016 22.4883 156.84 22.4232 156.684 22.293C156.527 22.1758 156.449 21.9935 156.449 21.7461C156.449 20.7305 156.566 19.7539 156.801 18.8164C157.035 17.8789 157.328 16.9479 157.68 16.0234C157.589 15.8542 157.562 15.6654 157.602 15.457C157.68 15.1836 157.849 15.0143 158.109 14.9492C158.37 14.3242 158.637 13.7057 158.91 13.0938C159.197 12.4688 159.47 11.8438 159.73 11.2188C159.991 10.5938 160.232 9.96224 160.453 9.32422C160.674 8.6862 160.857 8.03516 161 7.37109C161.039 7.17578 161.117 7.00651 161.234 6.86328C161.365 6.72005 161.54 6.64844 161.762 6.64844C161.97 6.64844 162.159 6.72656 162.328 6.88281C162.497 7.02604 162.569 7.20833 162.543 7.42969C162.504 8.1849 162.517 8.88151 162.582 9.51953C162.647 10.1445 162.745 10.7695 162.875 11.3945C163.005 12.0065 163.148 12.625 163.305 13.25C163.474 13.862 163.63 14.474 163.773 15.0859C163.917 15.6719 164.047 16.2578 164.164 16.8438C164.281 17.4297 164.47 17.9961 164.73 18.543C164.861 18.8164 164.997 19.0833 165.141 19.3438C165.284 19.5911 165.44 19.8451 165.609 20.1055C165.766 20.3398 165.909 20.5872 166.039 20.8477C166.169 21.0951 166.26 21.3685 166.312 21.668C166.339 21.8763 166.306 22.0716 166.215 22.2539C166.137 22.4362 165.987 22.5599 165.766 22.625C165.583 22.6771 165.388 22.651 165.18 22.5469C164.971 22.4427 164.848 22.2865 164.809 22.0781C164.757 21.7786 164.652 21.5117 164.496 21.2773C164.353 21.043 164.203 20.8021 164.047 20.5547C163.865 20.2682 163.695 19.9818 163.539 19.6953C163.396 19.3958 163.266 19.0898 163.148 18.7773C163.018 18.4518 162.908 18.1263 162.816 17.8008C162.725 17.4622 162.641 17.1237 162.562 16.7852C161.977 16.7461 161.397 16.7201 160.824 16.707C160.264 16.681 159.698 16.6354 159.125 16.5703C158.812 17.4036 158.546 18.25 158.324 19.1094C158.116 19.9688 158.005 20.8477 157.992 21.7461ZM159.828 14.832C159.802 14.8711 159.783 14.9167 159.77 14.9688C159.77 15.0078 159.757 15.0469 159.73 15.0859C160.147 15.125 160.557 15.151 160.961 15.1641C161.365 15.1641 161.775 15.1771 162.191 15.2031C162.048 14.5781 161.892 13.9596 161.723 13.3477C161.566 12.7227 161.423 12.0911 161.293 11.4531C161.059 12.026 160.818 12.5924 160.57 13.1523C160.323 13.6992 160.076 14.2591 159.828 14.832ZM169.184 22.2539C169.001 22.319 168.799 22.2995 168.578 22.1953C168.37 22.0911 168.253 21.9349 168.227 21.7266C168.044 20.5807 167.927 19.4479 167.875 18.3281C167.836 17.1953 167.816 16.056 167.816 14.9102C167.816 14.7148 167.868 14.5586 167.973 14.4414C168.077 14.3242 168.201 14.2461 168.344 14.207C168.487 14.168 168.637 14.1615 168.793 14.1875C168.949 14.2135 169.079 14.2786 169.184 14.3828C169.483 14.1354 169.802 13.9206 170.141 13.7383C170.479 13.556 170.818 13.4388 171.156 13.3867C171.508 13.3216 171.853 13.3411 172.191 13.4453C172.53 13.5365 172.849 13.7383 173.148 14.0508C173.396 14.3112 173.611 14.5911 173.793 14.8906C173.975 15.1771 174.138 15.4831 174.281 15.8086C174.477 15.3138 174.75 14.8581 175.102 14.4414C175.453 14.0247 175.902 13.7448 176.449 13.6016C176.853 13.4974 177.172 13.5234 177.406 13.6797C177.641 13.8229 177.862 14.0508 178.07 14.3633C178.292 14.6888 178.493 15.0208 178.676 15.3594C178.871 15.6979 179.053 16.043 179.223 16.3945C179.392 16.7461 179.555 17.0977 179.711 17.4492C179.867 17.8008 180.023 18.1458 180.18 18.4844C180.362 18.862 180.518 19.2396 180.648 19.6172C180.792 19.9818 180.883 20.3724 180.922 20.7891C180.948 21.0104 180.87 21.1992 180.688 21.3555C180.518 21.4987 180.336 21.5703 180.141 21.5703C179.919 21.5703 179.737 21.4987 179.594 21.3555C179.464 21.1992 179.385 21.0104 179.359 20.7891C179.333 20.4766 179.249 20.1771 179.105 19.8906C178.975 19.5911 178.845 19.2982 178.715 19.0117C178.572 18.7122 178.428 18.4062 178.285 18.0938C178.155 17.7812 178.018 17.4753 177.875 17.1758C177.732 16.8763 177.576 16.5768 177.406 16.2773C177.25 15.9779 177.081 15.6849 176.898 15.3984C176.872 15.3594 176.846 15.3203 176.82 15.2812C176.794 15.2422 176.768 15.2031 176.742 15.1641C176.482 15.3073 176.293 15.444 176.176 15.5742C176.059 15.7044 175.948 15.8802 175.844 16.1016C175.753 16.2969 175.674 16.5052 175.609 16.7266C175.557 16.9349 175.512 17.1497 175.473 17.3711C175.395 17.7878 175.336 18.224 175.297 18.6797C175.271 19.0182 175.271 19.3438 175.297 19.6562C175.336 19.9688 175.323 20.2943 175.258 20.6328C175.219 20.8411 175.095 20.9974 174.887 21.1016C174.691 21.2057 174.496 21.2318 174.301 21.1797C174.118 21.1276 173.982 21.0365 173.891 20.9062C173.812 20.763 173.76 20.6003 173.734 20.418C173.682 20.0013 173.624 19.5716 173.559 19.1289C173.493 18.6862 173.409 18.25 173.305 17.8203C173.201 17.3776 173.064 16.9544 172.895 16.5508C172.738 16.1341 172.53 15.75 172.27 15.3984C172.087 15.1641 171.898 15.0078 171.703 14.9297C171.521 14.8516 171.293 14.8841 171.02 15.0273C170.72 15.1836 170.427 15.3724 170.141 15.5938C169.854 15.8151 169.6 16.0625 169.379 16.3359C169.392 17.1693 169.418 18.0026 169.457 18.8359C169.509 19.6562 169.6 20.4766 169.73 21.2969C169.757 21.5182 169.724 21.7201 169.633 21.9023C169.555 22.0716 169.405 22.1888 169.184 22.2539ZM183.52 21.4727C183.077 21.2773 182.725 21.0104 182.465 20.6719C182.217 20.3203 182.042 19.9362 181.938 19.5195C181.846 19.1029 181.82 18.6732 181.859 18.2305C181.898 17.7747 181.99 17.3385 182.133 16.9219C182.25 16.5964 182.38 16.2578 182.523 15.9062C182.68 15.5547 182.862 15.2292 183.07 14.9297C183.279 14.6302 183.526 14.3763 183.812 14.168C184.099 13.9466 184.438 13.8034 184.828 13.7383C185.232 13.6732 185.635 13.6536 186.039 13.6797C186.456 13.6927 186.866 13.7318 187.27 13.7969C187.452 13.8229 187.628 13.8685 187.797 13.9336C187.966 13.9857 188.135 14.0443 188.305 14.1094C188.318 13.9141 188.402 13.7513 188.559 13.6211C188.728 13.4909 188.904 13.4258 189.086 13.4258C189.307 13.4258 189.483 13.5039 189.613 13.6602C189.757 13.8034 189.841 13.9792 189.867 14.1875C189.932 14.7865 189.958 15.3854 189.945 15.9844C189.945 16.5833 189.926 17.1823 189.887 17.7812C189.861 18.3802 189.835 18.9792 189.809 19.5781C189.796 20.1771 189.802 20.776 189.828 21.375C189.841 21.6224 189.763 21.8112 189.594 21.9414C189.438 22.0586 189.262 22.1172 189.066 22.1172C188.871 22.1172 188.689 22.0586 188.52 21.9414C188.363 21.8112 188.279 21.6224 188.266 21.375C187.523 21.6875 186.736 21.8698 185.902 21.9219C185.069 21.9609 184.275 21.8112 183.52 21.4727ZM183.656 17.2344C183.578 17.4688 183.507 17.7357 183.441 18.0352C183.376 18.3346 183.357 18.6211 183.383 18.8945C183.409 19.168 183.493 19.4219 183.637 19.6562C183.78 19.8776 184.014 20.0339 184.34 20.125C185.004 20.3333 185.668 20.3919 186.332 20.3008C187.009 20.2096 187.641 19.9753 188.227 19.5977C188.279 18.9596 188.318 18.3411 188.344 17.7422C188.383 17.1432 188.396 16.5378 188.383 15.9258C188.161 15.7826 187.934 15.6589 187.699 15.5547C187.478 15.4375 187.23 15.3594 186.957 15.3203C186.684 15.2812 186.391 15.2552 186.078 15.2422C185.779 15.2161 185.486 15.2161 185.199 15.2422C185.173 15.2422 185.102 15.2617 184.984 15.3008C184.88 15.3268 184.822 15.3464 184.809 15.3594C184.678 15.4245 184.561 15.5286 184.457 15.6719C184.288 15.9062 184.138 16.1602 184.008 16.4336C183.878 16.694 183.76 16.9609 183.656 17.2344ZM191.957 20.125C191.957 19.5651 191.996 18.9987 192.074 18.4258C192.165 17.7357 192.257 17.0521 192.348 16.375C192.439 15.6849 192.478 14.9883 192.465 14.2852C192.465 14.0378 192.543 13.849 192.699 13.7188C192.855 13.5885 193.031 13.5234 193.227 13.5234C193.422 13.5234 193.604 13.5885 193.773 13.7188C193.943 13.849 194.027 14.0378 194.027 14.2852C194.535 14.2461 195.017 14.2266 195.473 14.2266C195.993 14.2396 196.436 14.3893 196.801 14.6758C197.165 14.9622 197.439 15.3464 197.621 15.8281C197.777 16.2708 197.868 16.7266 197.895 17.1953C197.921 17.6641 197.94 18.1328 197.953 18.6016C197.966 19.2656 197.986 19.9297 198.012 20.5938C198.038 21.2448 198.051 21.9023 198.051 22.5664C198.051 22.8268 197.966 23.0156 197.797 23.1328C197.641 23.263 197.465 23.3281 197.27 23.3281C197.087 23.3281 196.911 23.263 196.742 23.1328C196.586 23.0156 196.508 22.8268 196.508 22.5664C196.508 21.9414 196.495 21.3294 196.469 20.7305C196.456 20.1315 196.436 19.5195 196.41 18.8945C196.384 18.556 196.371 18.2109 196.371 17.8594C196.384 17.4948 196.358 17.1628 196.293 16.8633C196.254 16.681 196.215 16.5247 196.176 16.3945C196.137 16.2513 196.065 16.1146 195.961 15.9844C195.935 15.9323 195.876 15.8867 195.785 15.8477C195.707 15.8086 195.635 15.7891 195.57 15.7891C195.375 15.7891 195.193 15.8021 195.023 15.8281C194.854 15.8542 194.678 15.8932 194.496 15.9453C194.418 15.9714 194.34 15.9974 194.262 16.0234C194.184 16.0495 194.112 16.082 194.047 16.1211C193.917 16.5898 193.819 17.0391 193.754 17.4688C193.702 17.8854 193.65 18.3086 193.598 18.7383C193.559 19.0508 193.533 19.3698 193.52 19.6953C193.52 20.0078 193.507 20.3203 193.48 20.6328C193.467 20.9453 193.428 21.2578 193.363 21.5703C193.311 21.8828 193.214 22.1823 193.07 22.4688C192.953 22.6901 192.797 22.8138 192.602 22.8398C192.406 22.8789 192.224 22.8464 192.055 22.7422C191.898 22.651 191.775 22.5078 191.684 22.3125C191.605 22.1172 191.618 21.9089 191.723 21.6875C191.84 21.4531 191.905 21.1992 191.918 20.9258C191.931 20.6523 191.944 20.3854 191.957 20.125ZM200.238 21.6094C200.056 21.5443 199.9 21.4206 199.77 21.2383C199.652 21.043 199.633 20.8477 199.711 20.6523C199.932 20.0404 200.082 19.4219 200.16 18.7969C200.238 18.1719 200.29 17.5339 200.316 16.8828C200.329 16.6875 200.336 16.4987 200.336 16.3164C200.336 16.1211 200.342 15.9258 200.355 15.7305C200.316 15.5742 200.329 15.4245 200.395 15.2812C200.421 14.9036 200.447 14.526 200.473 14.1484C200.499 13.7578 200.538 13.3737 200.59 12.9961C200.655 12.4232 200.72 11.8568 200.785 11.2969C200.863 10.724 200.915 10.1445 200.941 9.55859C200.967 9.02474 200.993 8.4974 201.02 7.97656C201.059 7.44271 201.195 6.9349 201.43 6.45312C201.547 6.23177 201.703 6.10807 201.898 6.08203C202.094 6.04297 202.276 6.07552 202.445 6.17969C202.615 6.27083 202.738 6.41406 202.816 6.60938C202.908 6.80469 202.895 7.01302 202.777 7.23438C202.673 7.45573 202.602 7.68359 202.562 7.91797C202.523 8.15234 202.497 8.39323 202.484 8.64062C202.484 8.88802 202.484 9.13542 202.484 9.38281C202.484 9.63021 202.478 9.87109 202.465 10.1055C202.4 10.6914 202.335 11.2773 202.27 11.8633C202.204 12.4362 202.139 13.0156 202.074 13.6016C202.621 13.3281 203.227 13.1784 203.891 13.1523C204.411 13.1393 204.939 13.2305 205.473 13.4258C206.02 13.6081 206.462 13.9076 206.801 14.3242C206.996 14.5716 207.152 14.8451 207.27 15.1445C207.387 15.431 207.478 15.737 207.543 16.0625C207.621 16.375 207.673 16.694 207.699 17.0195C207.725 17.332 207.751 17.638 207.777 17.9375C207.816 18.5495 207.829 19.1615 207.816 19.7734C207.816 20.3724 207.803 20.9844 207.777 21.6094C207.777 21.8568 207.693 22.0391 207.523 22.1562C207.354 22.2865 207.172 22.3516 206.977 22.3516C206.781 22.3516 206.605 22.2865 206.449 22.1562C206.293 22.0391 206.221 21.8568 206.234 21.6094C206.247 21.0885 206.26 20.5677 206.273 20.0469C206.286 19.526 206.28 19.0052 206.254 18.4844C206.228 18.224 206.208 17.957 206.195 17.6836C206.182 17.4102 206.15 17.1367 206.098 16.8633C206.072 16.7331 206.046 16.6094 206.02 16.4922C206.007 16.362 205.98 16.2318 205.941 16.1016C205.928 15.9974 205.896 15.8867 205.844 15.7695C205.805 15.6523 205.779 15.5872 205.766 15.5742C205.74 15.5352 205.72 15.5026 205.707 15.4766C205.694 15.4375 205.674 15.3984 205.648 15.3594C205.531 15.2292 205.46 15.1576 205.434 15.1445C205.382 15.1055 205.336 15.0794 205.297 15.0664C205.258 15.0404 205.219 15.0143 205.18 14.9883C205.036 14.9102 204.874 14.8451 204.691 14.793C204.509 14.7409 204.333 14.7148 204.164 14.7148C203.721 14.6888 203.305 14.7669 202.914 14.9492C202.536 15.1315 202.198 15.4115 201.898 15.7891C201.872 16.6875 201.827 17.5794 201.762 18.4648C201.697 19.3372 201.508 20.2031 201.195 21.0625C201.13 21.2578 201.007 21.4141 200.824 21.5312C200.655 21.6484 200.46 21.6745 200.238 21.6094ZM211 21.4727C210.557 21.2773 210.206 21.0104 209.945 20.6719C209.698 20.3203 209.522 19.9362 209.418 19.5195C209.327 19.1029 209.301 18.6732 209.34 18.2305C209.379 17.7747 209.47 17.3385 209.613 16.9219C209.73 16.5964 209.861 16.2578 210.004 15.9062C210.16 15.5547 210.342 15.2292 210.551 14.9297C210.759 14.6302 211.007 14.3763 211.293 14.168C211.579 13.9466 211.918 13.8034 212.309 13.7383C212.712 13.6732 213.116 13.6536 213.52 13.6797C213.936 13.6927 214.346 13.7318 214.75 13.7969C214.932 13.8229 215.108 13.8685 215.277 13.9336C215.447 13.9857 215.616 14.0443 215.785 14.1094C215.798 13.9141 215.883 13.7513 216.039 13.6211C216.208 13.4909 216.384 13.4258 216.566 13.4258C216.788 13.4258 216.964 13.5039 217.094 13.6602C217.237 13.8034 217.322 13.9792 217.348 14.1875C217.413 14.7865 217.439 15.3854 217.426 15.9844C217.426 16.5833 217.406 17.1823 217.367 17.7812C217.341 18.3802 217.315 18.9792 217.289 19.5781C217.276 20.1771 217.283 20.776 217.309 21.375C217.322 21.6224 217.243 21.8112 217.074 21.9414C216.918 22.0586 216.742 22.1172 216.547 22.1172C216.352 22.1172 216.169 22.0586 216 21.9414C215.844 21.8112 215.759 21.6224 215.746 21.375C215.004 21.6875 214.216 21.8698 213.383 21.9219C212.549 21.9609 211.755 21.8112 211 21.4727ZM211.137 17.2344C211.059 17.4688 210.987 17.7357 210.922 18.0352C210.857 18.3346 210.837 18.6211 210.863 18.8945C210.889 19.168 210.974 19.4219 211.117 19.6562C211.26 19.8776 211.495 20.0339 211.82 20.125C212.484 20.3333 213.148 20.3919 213.812 20.3008C214.49 20.2096 215.121 19.9753 215.707 19.5977C215.759 18.9596 215.798 18.3411 215.824 17.7422C215.863 17.1432 215.876 16.5378 215.863 15.9258C215.642 15.7826 215.414 15.6589 215.18 15.5547C214.958 15.4375 214.711 15.3594 214.438 15.3203C214.164 15.2812 213.871 15.2552 213.559 15.2422C213.259 15.2161 212.966 15.2161 212.68 15.2422C212.654 15.2422 212.582 15.2617 212.465 15.3008C212.361 15.3268 212.302 15.3464 212.289 15.3594C212.159 15.4245 212.042 15.5286 211.938 15.6719C211.768 15.9062 211.618 16.1602 211.488 16.4336C211.358 16.694 211.241 16.9609 211.137 17.2344ZM215.492 12C215.219 12.1042 214.932 12.1367 214.633 12.0977C214.346 12.0456 214.086 11.9284 213.852 11.7461C213.669 11.6029 213.493 11.4466 213.324 11.2773C213.155 11.0951 212.953 10.9844 212.719 10.9453C212.497 10.9062 212.283 10.9453 212.074 11.0625C211.879 11.1797 211.71 11.3099 211.566 11.4531C211.384 11.6354 211.189 11.7135 210.98 11.6875C210.785 11.6615 210.616 11.5833 210.473 11.4531C210.342 11.3099 210.258 11.1406 210.219 10.9453C210.193 10.737 210.271 10.5417 210.453 10.3594C210.674 10.138 210.922 9.94922 211.195 9.79297C211.469 9.63672 211.755 9.52604 212.055 9.46094C212.367 9.38281 212.673 9.36979 212.973 9.42188C213.285 9.46094 213.585 9.5651 213.871 9.73438C214.118 9.90365 214.333 10.0859 214.516 10.2812C214.581 10.3464 214.639 10.4049 214.691 10.457C214.743 10.4961 214.802 10.5286 214.867 10.5547C214.945 10.5677 215.023 10.5482 215.102 10.4961C215.18 10.431 215.258 10.3594 215.336 10.2812C215.414 10.1901 215.486 10.099 215.551 10.0078C215.616 9.90365 215.668 9.82552 215.707 9.77344C215.85 9.60417 216.033 9.52604 216.254 9.53906C216.475 9.55208 216.658 9.63021 216.801 9.77344C216.97 9.92969 217.048 10.112 217.035 10.3203C217.022 10.5156 216.944 10.6979 216.801 10.8672C216.618 11.0885 216.43 11.3099 216.234 11.5312C216.039 11.7396 215.792 11.8958 215.492 12Z" fill="#292524"/>
</svg>
